<?xml version="1.0" encoding="UTF-8" standalone="no"?>
<!DOCTYPE svg PUBLIC "-//W3C//DTD SVG 1.1//EN" "http://www.w3.org/Graphics/SVG/1.1/DTD/svg11.dtd">
<svg width="100%" height="100%" viewBox="0 0 100 100" version="1.1" xmlns="http://www.w3.org/2000/svg" xmlns:xlink="http://www.w3.org/1999/xlink" xml:space="preserve" xmlns:serif="http://www.serif.com/" style="fill-rule:evenodd;clip-rule:evenodd;stroke-linecap:round;stroke-linejoin:round;stroke-miterlimit:1.5;">
    <g transform="matrix(1,0,0,1,-7.10543e-15,-4.0375)">
        <path d="M46.133,50.759C46.133,48.703 45.169,46.766 43.531,45.524C39.388,42.433 36.619,36.396 36.619,29.475C36.619,19.291 42.615,11.023 50,11.023C57.385,11.023 63.381,19.291 63.381,29.475C63.381,36.396 60.612,42.433 56.519,45.59C54.901,46.816 53.95,48.729 53.95,50.759C53.867,59.886 53.867,83.795 53.867,93.186C53.867,95.321 52.136,97.052 50.001,97.052C50,97.052 50,97.052 49.999,97.052C47.864,97.052 46.133,95.321 46.133,93.186C46.133,83.795 46.133,59.886 46.133,50.759Z" style="fill:none;stroke:white;stroke-width:4.17px;"/>
    </g>
</svg>
