<?xml version="1.0" encoding="UTF-8" standalone="no"?>
<!DOCTYPE svg PUBLIC "-//W3C//DTD SVG 1.1//EN" "http://www.w3.org/Graphics/SVG/1.1/DTD/svg11.dtd">
<svg width="100%" height="100%" viewBox="0 0 100 100" version="1.1" xmlns="http://www.w3.org/2000/svg" xmlns:xlink="http://www.w3.org/1999/xlink" xml:space="preserve" xmlns:serif="http://www.serif.com/" style="fill-rule:evenodd;clip-rule:evenodd;stroke-linecap:round;stroke-linejoin:round;stroke-miterlimit:1.5;">
    <g>
        <g transform="matrix(0.866025,-0.5,0.5,0.866025,-20.32,28.2021)">
            <path d="M46.133,50.759C46.133,48.703 45.169,46.766 43.531,45.524C39.388,42.433 36.619,36.396 36.619,29.475C36.619,19.291 42.615,11.023 50,11.023C57.385,11.023 63.381,19.291 63.381,29.475C63.381,36.396 60.612,42.433 56.519,45.59C54.901,46.816 53.95,48.729 53.95,50.759C53.867,59.886 53.867,83.795 53.867,93.186C53.867,95.321 52.136,97.052 50.001,97.052C50,97.052 50,97.052 49.999,97.052C47.864,97.052 46.133,95.321 46.133,93.186C46.133,83.795 46.133,59.886 46.133,50.759Z" style="fill:none;stroke:white;stroke-width:4.17px;"/>
        </g>
        <path d="M45.535,50L50.019,57.767C44.523,67.221 37.208,79.891 33.775,85.837C32.707,87.686 30.343,88.32 28.494,87.252C28.493,87.252 28.492,87.251 28.492,87.251C26.643,86.183 26.009,83.819 27.077,81.97L45.535,50ZM50,23.32C50.216,22.891 50.448,22.463 50.693,22.038C55.785,13.218 65.111,9.056 71.507,12.748C77.903,16.441 78.961,26.599 73.869,35.419C70.409,41.413 64.992,45.256 59.87,45.944C57.855,46.196 56.075,47.378 55.06,49.136C54.895,49.417 54.72,49.714 54.537,50.026C53.46,48.143 52.52,46.492 51.782,45.186C50.767,43.428 50.634,41.295 51.422,39.425C53.248,34.983 52.843,28.96 50,23.32Z" style="fill:none;stroke:white;stroke-width:4.17px;"/>
    </g>
</svg>
