<?xml version="1.0" encoding="UTF-8" standalone="no"?>
<!DOCTYPE svg PUBLIC "-//W3C//DTD SVG 1.1//EN" "http://www.w3.org/Graphics/SVG/1.1/DTD/svg11.dtd">
<svg width="100%" height="100%" viewBox="0 0 100 100" version="1.1" xmlns="http://www.w3.org/2000/svg" xmlns:xlink="http://www.w3.org/1999/xlink" xml:space="preserve" xmlns:serif="http://www.serif.com/" style="fill-rule:evenodd;clip-rule:evenodd;stroke-linecap:round;stroke-linejoin:round;stroke-miterlimit:1.5;">
    <g>
        <g transform="matrix(0.866025,0.5,-0.5,0.866025,33.7175,-21.7979)">
            <path d="M46.133,50.759C46.133,48.703 45.169,46.766 43.531,45.524C39.388,42.433 36.619,36.396 36.619,29.475C36.619,19.291 42.615,11.023 50,11.023C57.385,11.023 63.381,19.291 63.381,29.475C63.381,36.396 60.612,42.433 56.519,45.59C54.901,46.816 53.95,48.729 53.95,50.759C53.867,59.886 53.867,83.795 53.867,93.186C53.867,95.321 52.136,97.052 50.001,97.052C50,97.052 50,97.052 49.999,97.052C47.864,97.052 46.133,95.321 46.133,93.186C46.133,83.795 46.133,59.886 46.133,50.759Z" style="fill:none;stroke:white;stroke-width:4.17px;"/>
        </g>
        <path d="M54.537,50.026C60.008,59.599 69,75.174 72.923,81.97C73.991,83.819 73.357,86.183 71.508,87.251C71.508,87.251 71.507,87.252 71.506,87.252C69.657,88.32 67.293,87.686 66.225,85.837L50.019,57.767C51.771,54.752 53.339,52.065 54.537,50.026ZM45.535,50L45.012,49.094C43.983,47.314 42.181,46.118 40.141,45.862C35.008,45.256 29.591,41.413 26.131,35.419C21.039,26.599 22.097,16.441 28.493,12.748C34.889,9.056 44.215,13.218 49.307,22.038C49.552,22.463 49.784,22.891 50,23.32C47.158,28.96 46.757,34.981 48.654,39.393C49.453,41.287 49.318,43.447 48.29,45.227L45.535,50Z" style="fill:none;stroke:white;stroke-width:4.17px;"/>
        <path d="M55.502,48.653C64.89,54.136 78.785,62.154 85.837,66.225C87.686,67.293 88.32,69.657 87.252,71.506C87.252,71.507 87.251,71.508 87.251,71.508C86.183,73.357 83.819,73.991 81.97,72.923L60.592,60.581C57.658,55.479 57.476,52.123 55.502,48.653ZM22.94,22.94C22.709,26.859 23.744,31.286 26.131,35.419C29.591,41.413 35.008,45.256 40.141,45.862C42.181,46.118 43.983,47.314 45.012,49.094L44.429,50L44.748,51.118C42.968,50.091 41.287,50.547 39.393,51.346C34.644,53.388 28.032,52.768 22.038,49.307C13.218,44.215 9.056,34.889 12.748,28.493C14.711,25.094 18.499,23.203 22.94,22.94Z" style="fill:none;stroke:white;stroke-width:4.17px;"/>
        <path d="M47.169,47.169L39.419,60.592C31.328,65.246 22.65,70.256 18.03,72.923C16.181,73.991 13.817,73.357 12.749,71.508C12.749,71.508 12.748,71.507 12.748,71.506C11.68,69.657 12.314,67.293 14.163,66.225L47.169,47.169ZM77.06,22.94C81.501,23.203 85.289,25.094 87.252,28.493C90.944,34.889 86.782,44.215 77.962,49.307C71.968,52.768 65.356,53.388 60.575,51.422C58.705,50.634 56.572,50.767 54.814,51.782C54.229,52.113 53.574,52.484 52.859,52.891C53.699,51.453 54.444,50.181 55.06,49.136C56.075,47.378 57.855,46.196 59.87,45.944C64.992,45.256 70.409,41.413 73.869,35.419C76.256,31.286 77.291,26.859 77.06,22.94Z" style="fill:none;stroke:white;stroke-width:4.17px;"/>
    </g>
</svg>
