<?xml version="1.0" encoding="UTF-8" standalone="no"?>
<!DOCTYPE svg PUBLIC "-//W3C//DTD SVG 1.1//EN" "http://www.w3.org/Graphics/SVG/1.1/DTD/svg11.dtd">
<svg width="100%" height="100%" viewBox="0 0 800 800" version="1.1" xmlns="http://www.w3.org/2000/svg" xmlns:xlink="http://www.w3.org/1999/xlink" xml:space="preserve" xmlns:serif="http://www.serif.com/" style="fill-rule:evenodd;clip-rule:evenodd;">
    <g transform="matrix(1,0,0,1,0,16.6667)">
        <g id="SVGRepo_iconCarrier">
            <g id="Layer_2">
                <g id="Medical">
                    <path d="M733.333,383.333L600,383.333L600,350L650,350C668.286,350 683.333,334.953 683.333,316.667C683.333,298.381 668.286,283.333 650,283.333L533.333,283.333L533.333,383.333L433.333,383.333L433.333,133.333C433.333,115.047 448.381,100 466.667,100C484.953,100 500,115.047 500,133.333L500,150C500,168.286 515.047,183.333 533.333,183.333C551.619,183.333 566.667,168.286 566.667,150L566.667,133.333C566.667,78.475 521.525,33.333 466.667,33.333C411.808,33.333 366.667,78.475 366.667,133.333L366.667,383.333L266.667,383.333L266.667,283.333L150,283.333C131.714,283.333 116.667,298.381 116.667,316.667C116.667,334.953 131.714,350 150,350L200,350L200,383.333L66.667,383.333C48.381,383.333 33.333,398.381 33.333,416.667C33.333,434.953 48.381,450 66.667,450L100,450L100,566.667C100,658.097 175.236,733.333 266.667,733.333L533.333,733.333C624.764,733.333 700,658.097 700,566.667L700,450L733.333,450C751.619,450 766.667,434.953 766.667,416.667C766.667,398.381 751.619,383.333 733.333,383.333ZM633.333,566.667C633.333,621.525 588.192,666.667 533.333,666.667L266.667,666.667C211.808,666.667 166.667,621.525 166.667,566.667L166.667,450L633.333,450L633.333,566.667Z" style="fill:white;fill-rule:nonzero;stroke:white;stroke-width:1px;"/>
                </g>
            </g>
        </g>
    </g>
</svg>
