<?xml version="1.0" encoding="UTF-8" standalone="no"?>
<!DOCTYPE svg PUBLIC "-//W3C//DTD SVG 1.1//EN" "http://www.w3.org/Graphics/SVG/1.1/DTD/svg11.dtd">
<svg width="100%" height="100%" viewBox="0 0 100 100" version="1.1" xmlns="http://www.w3.org/2000/svg" xmlns:xlink="http://www.w3.org/1999/xlink" xml:space="preserve" xmlns:serif="http://www.serif.com/" style="fill-rule:evenodd;clip-rule:evenodd;stroke-linecap:round;stroke-linejoin:round;stroke-miterlimit:1.5;">
    <g transform="matrix(0.119909,0,0,0.119909,2.81631,3.29615)">
        <g transform="matrix(0.999578,0.0290613,-0.0290613,0.999578,-17.9952,-43.9806)">
            <path d="M320,602.838C312.397,610.253 304.119,617.305 295.193,623.889C218.53,680.445 122.993,681.225 81.98,625.63C40.968,570.036 69.911,478.985 146.574,422.43C207.706,377.332 280.839,367.7 328.751,393.833C330.996,395.086 333.767,394.911 335.836,393.384C366.68,370.649 596.769,200.91 679.003,140.245C695.08,128.385 717.727,131.803 729.588,147.88C729.588,147.881 729.589,147.882 729.59,147.883C741.45,163.96 738.032,186.608 721.955,198.468L426.563,416.382C367.07,421.21 320,471.297 320,532C320,533.823 320.197,535.604 320.281,537.406L320,537.406L320,602.838Z" style="fill:none;stroke:white;stroke-width:34.75px;"/>
        </g>
        <path d="M436,416C372.122,416 320,468.122 320,532C320,533.823 320.197,535.604 320.281,537.406L320,537.406L320,640.156C320.009,642.596 320.575,645.001 321.656,647.188C326.826,706.341 375.554,753.406 436,753.406C451.583,753.406 466.911,747.837 479.844,742.781C492.777,737.725 502.844,732.656 502.844,732.656C502.917,732.615 502.99,732.573 503.062,732.531C511.893,727.902 523.293,724.844 536,724.844C548.707,724.844 560.107,727.902 568.938,732.531C569.01,732.573 569.083,732.615 569.156,732.656C569.156,732.656 579.223,737.725 592.156,742.781C605.089,747.837 620.417,753.406 636,753.406C696.435,753.406 745.159,706.358 750.344,647.219C751.429,645.023 751.996,642.606 752,640.156L752,537.406L751.719,537.406C751.803,535.604 752,533.823 752,532C752,468.122 699.878,416 636,416C620.417,416 605.089,421.569 592.156,426.625C579.223,431.681 569.156,436.75 569.156,436.75L569.031,436.812L568.938,436.875C560.107,441.504 548.707,444.562 536,444.562C523.293,444.562 511.893,441.504 503.062,436.875L502.969,436.812L502.844,436.75C502.844,436.75 492.777,431.681 479.844,426.625C466.912,421.569 451.583,416 436,416ZM436,448C442.305,448 456.8,451.942 468.219,456.406C479.515,460.822 488.032,465.125 488.219,465.219C501.852,472.366 518.211,476.562 536,476.562C553.789,476.562 570.148,472.366 583.781,465.219C583.968,465.124 592.485,460.822 603.781,456.406C615.2,451.942 629.695,448 636,448C682.586,448 720,485.414 720,532C720,578.586 682.586,616 636,616C629.695,616 615.2,612.058 603.781,607.594C592.485,603.178 583.968,598.875 583.781,598.781C570.148,591.634 553.789,587.438 536,587.438C518.211,587.438 501.852,591.634 488.219,598.781C488.032,598.876 479.515,603.178 468.219,607.594C456.8,612.058 442.305,616 436,616C389.414,616 352,578.586 352,532C352,485.414 389.414,448 436,448ZM449.031,480C440.254,480 433.031,487.223 433.031,496C433.031,504.777 440.254,512 449.031,512C457.809,512 465.031,504.777 465.031,496C465.031,487.223 457.809,480 449.031,480ZM593.031,496C584.254,496 577.031,503.223 577.031,512C577.031,520.777 584.254,528 593.031,528C601.809,528 609.031,520.777 609.031,512C609.031,503.223 601.809,496 593.031,496ZM657.031,496C648.254,496 641.031,503.223 641.031,512C641.031,520.777 648.254,528 657.031,528C665.809,528 673.031,520.777 673.031,512C673.031,503.223 665.809,496 657.031,496ZM401.031,512C392.254,512 385.031,519.223 385.031,528C385.031,536.777 392.254,544 401.031,544C409.809,544 417.031,536.777 417.031,528C417.031,519.223 409.809,512 401.031,512ZM481.031,528C472.254,528 465.031,535.223 465.031,544C465.031,552.777 472.254,560 481.031,560C489.809,560 497.031,552.777 497.031,544C497.031,535.223 489.809,528 481.031,528ZM545.031,528C536.254,528 529.031,535.223 529.031,544C529.031,552.777 536.254,560 545.031,560C553.809,560 561.031,552.777 561.031,544C561.031,535.223 553.809,528 545.031,528ZM433.031,560C424.254,560 417.031,567.223 417.031,576C417.031,584.777 424.254,592 433.031,592C441.809,592 449.031,584.777 449.031,576C449.031,567.223 441.809,560 433.031,560ZM641.031,560C632.254,560 625.031,567.223 625.031,576C625.031,584.777 632.254,592 641.031,592C649.809,592 657.031,584.777 657.031,576C657.031,567.223 649.809,560 641.031,560ZM352,611.719C373.163,634.006 402.974,648 436,648C451.583,648 466.911,642.431 479.844,637.375C492.777,632.319 502.844,627.25 502.844,627.25L502.969,627.188L503.062,627.125C511.893,622.496 523.293,619.438 536,619.438C548.707,619.438 560.107,622.496 568.938,627.125L569.031,627.188L569.156,627.25C569.156,627.25 579.223,632.319 592.156,637.375C605.088,642.431 620.417,648 636,648C669.026,648 698.837,634.006 720,611.719L720,638.219C719.935,638.717 719.893,639.217 719.875,639.719C718.648,685.193 681.796,721.406 636,721.406C629.695,721.406 615.2,717.464 603.781,713C592.485,708.584 583.968,704.282 583.781,704.188C570.148,697.041 553.789,692.844 536,692.844C518.211,692.844 501.852,697.041 488.219,704.188C488.032,704.282 479.515,708.584 468.219,713C456.8,717.464 442.305,721.406 436,721.406C390.204,721.406 353.352,685.193 352.125,639.719C352.11,639.186 352.068,638.654 352,638.125L352,611.719ZM497.031,640C488.254,640 481.031,647.223 481.031,656C481.031,664.777 488.254,672 497.031,672C505.809,672 513.031,664.777 513.031,656C513.031,647.223 505.809,640 497.031,640ZM593.031,656C584.254,656 577.031,663.223 577.031,672C577.031,680.777 584.254,688 593.031,688C601.809,688 609.031,680.777 609.031,672C609.031,663.223 601.809,656 593.031,656ZM673.031,656C664.254,656 657.031,663.223 657.031,672C657.031,680.777 664.254,688 673.031,688C681.809,688 689.031,680.777 689.031,672C689.031,663.223 681.809,656 673.031,656ZM433.031,672C424.254,672 417.031,679.223 417.031,688C417.031,696.777 424.254,704 433.031,704C441.809,704 449.031,696.777 449.031,688C449.031,679.223 441.809,672 433.031,672Z" style="fill:white;fill-rule:nonzero;stroke:white;stroke-width:8.34px;stroke-linecap:butt;stroke-miterlimit:2;"/>
        <g transform="matrix(1,0,0,1,200.081,108.127)">
            <circle cx="94.222" cy="169.112" r="64.012" style="fill:none;stroke:white;stroke-width:26.06px;"/>
        </g>
        <g transform="matrix(0.64669,0,0,0.64669,75.0993,-8.70908)">
            <circle cx="94.222" cy="169.112" r="64.012" style="fill:none;stroke:white;stroke-width:40.3px;"/>
        </g>
        <g transform="matrix(0.509815,0,0,0.509815,614.66,222.4)">
            <circle cx="94.222" cy="169.112" r="64.012" style="fill:none;stroke:white;stroke-width:51.12px;"/>
        </g>
        <g transform="matrix(0.69456,0,0,0.69456,401.462,-7.57465)">
            <circle cx="94.222" cy="169.112" r="64.012" style="fill:none;stroke:white;stroke-width:37.52px;"/>
        </g>
    </g>
</svg>
